<?xml version="1.0" encoding="UTF-8"?>
<svg width="139px" height="140px" viewBox="0 0 139 140" version="1.1" xmlns="http://www.w3.org/2000/svg" xmlns:xlink="http://www.w3.org/1999/xlink">
    <!-- Generator: Sketch 51.3 (57544) - http://www.bohemiancoding.com/sketch -->
    <title>Group 29</title>
    <desc>Created with Sketch.</desc>
    <defs>
        <polygon id="path-1" points="0 0.000197183099 145 0.000197183099 145 73.943662 0 73.943662"></polygon>
        <polygon id="path-3" points="0 159.71831 162 159.71831 162 0 0 0"></polygon>
    </defs>
    <g id="Page-1" stroke="none" stroke-width="1" fill="none" fill-rule="evenodd">
        <g id="design-copy-4" transform="translate(-1094.000000, -780.000000)">
            <g id="Group-32-Copy" transform="translate(893.000000, 570.000000)">
                <g id="Иконка">
                    <g id="Group-29" transform="translate(201.000000, 210.985915)">
                        <polygon id="Fill-1" fill="#E2E2E2" points="38 100.56338 48 100.56338 48 96.6197183 38 96.6197183"></polygon>
                        <polygon id="Fill-2" fill="#E2E2E2" points="54 100.56338 78 100.56338 78 96.6197183 54 96.6197183"></polygon>
                        <polygon id="Fill-3" fill="#E2E2E2" points="84 100.56338 88 100.56338 88 96.6197183 84 96.6197183"></polygon>
                        <polygon id="Fill-4" fill="#E2E2E2" points="38 111.408451 69 111.408451 69 107.464789 38 107.464789"></polygon>
                        <polygon id="Fill-5" fill="#E2E2E2" points="76 111.408451 88 111.408451 88 107.464789 76 107.464789"></polygon>
                        <path d="M31,118.309859 L95,118.309859 L95,89.7183099 L31,89.7183099 L31,118.309859 Z M27,122.253521 L99,122.253521 L99,85.7746479 L27,85.7746479 L27,122.253521 Z" id="Fill-6" fill="#E2E2E2"></path>
                        <polygon id="Fill-7" fill="#E2E2E2" points="116 111.408451 121 111.408451 121 107.464789 116 107.464789"></polygon>
                        <polygon id="Fill-8" fill="#E2E2E2" points="116 122.253521 121 122.253521 121 118.309859 116 118.309859"></polygon>
                        <polygon id="Fill-9" fill="#E2E2E2" points="127 111.408451 151 111.408451 151 107.464789 127 107.464789"></polygon>
                        <polygon id="Fill-10" fill="#E2E2E2" points="127 122.253521 151 122.253521 151 118.309859 127 118.309859"></polygon>
                        <path d="M106,133.098592 L162,133.098592 L162,96.6197183 L106,96.6197183 L106,133.098592 Z M110,129.155915 L158.001,129.155915 L158.001,100.56338 L110,100.56338 L110,129.155915 Z" id="Fill-11" fill="#E2E2E2"></path>
                        <polygon id="Fill-12" fill="#E2E2E2" points="16.0002 0 16.0002 36.4788732 20.9992 36.4788732 20.9992 4.92957746 141.0002 4.92957746 141.0002 12.8169014 146.0002 12.8169014 146.0002 0"></polygon>
                        <g id="Group-28">
                            <g id="Group-15" transform="translate(0.000000, 85.774648)">
                                <mask id="mask-2" fill="white">
                                    <use xlink:href="#path-1"></use>
                                </mask>
                                <g id="Clip-14"></g>
                                <path d="M4,63.2565352 C4,66.4696338 7.571,70.0001972 10.82,70.0001972 L126.845,70.0001972 L126.251,69.0468169 C125.327,67.1509014 125,65.0223099 125,63.2565352 L125,57.1832958 L4,57.1832958 L4,63.2565352 Z M10.82,73.9438592 C5.129,73.9438592 0,68.8772394 0,63.2565352 L0,53.2396338 L16,53.2396338 L16,0.000197183099 L21,0.000197183099 L21,53.2396338 L129,53.2396338 L129,63.2565352 C129,66.4755493 131.691,69.0931549 135,69.0931549 C138.309,69.0931549 141,66.4755493 141,63.2565352 L141,53.2396338 L145,53.2396338 L145,63.2565352 C145,68.9728732 141.076,73.9438592 135.43,73.9438592 L10.82,73.9438592 Z" id="Fill-13" fill="#E2E2E2" mask="url(#mask-2)"></path>
                            </g>
                            <mask id="mask-4" fill="white">
                                <use xlink:href="#path-3"></use>
                            </mask>
                            <g id="Clip-17"></g>
                            <path d="M4,75.915493 L55,75.915493 L55,47.3239437 L4,47.3239437 L4,75.915493 Z M0,79.8591549 L59,79.8591549 L59,43.3802817 L0,43.3802817 L0,79.8591549 Z" id="Fill-16" fill="#E2E2E2" mask="url(#mask-4)"></path>
                            <path d="M11.9648,62.4342817 C11.1048,61.5854085 11.1048,60.2031549 11.9648,59.3542817 L17.0288,54.3616056 L20.1528,57.4406197 L16.6498,60.8942817 L20.1528,64.3479437 L17.0288,67.4269577 L11.9648,62.4342817 Z" id="Fill-18" fill="#E2E2E2" mask="url(#mask-4)"></path>
                            <path d="M39.4072,64.348338 L42.9102,60.8946761 L39.4072,57.4410141 L42.5312,54.3610141 L47.5952,59.3546761 C48.4552,60.2025634 48.4552,61.5848169 47.5952,62.4346761 L42.5312,67.4273521 L39.4072,64.348338 Z" id="Fill-19" fill="#E2E2E2" mask="url(#mask-4)"></path>
                            <polygon id="Fill-20" fill="#E2E2E2" mask="url(#mask-4)" points="25.1309 67.7489577 30.2349 52.6585352 34.4289 54.0368451 29.3219 69.1272676"></polygon>
                            <path d="M128.6602,31.0269577 C126.1392,31.0269577 124.0902,33.0431549 124.0902,35.5227324 C124.0902,38.0013239 126.1392,40.018507 128.6602,40.018507 C131.1752,40.018507 133.2202,38.0013239 133.2202,35.5227324 C133.2202,33.0431549 131.1752,31.0269577 128.6602,31.0269577 M128.6602,44.3762535 C123.7032,44.3762535 119.6702,40.404 119.6702,35.5227324 C119.6702,30.6404789 123.7032,26.6692113 128.6602,26.6692113 C133.6112,26.6692113 137.6392,30.6404789 137.6392,35.5227324 C137.6392,40.404 133.6112,44.3762535 128.6602,44.3762535" id="Fill-21" fill="#E2E2E2" mask="url(#mask-4)"></path>
                            <polygon id="Fill-22" fill="#E2E2E2" mask="url(#mask-4)" points="27 15.7746479 31 15.7746479 31 10.8450704 27 10.8450704"></polygon>
                            <polygon id="Fill-23" fill="#E2E2E2" mask="url(#mask-4)" points="38 15.7746479 42 15.7746479 42 10.8450704 38 10.8450704"></polygon>
                            <polygon id="Fill-24" fill="#E2E2E2" mask="url(#mask-4)" points="49 15.7746479 53 15.7746479 53 10.8450704 49 10.8450704"></polygon>
                            <polygon id="Fill-25" fill="#E2E2E2" mask="url(#mask-4)" points="27 26.6197183 59 26.6197183 59 21.6901408 27 21.6901408"></polygon>
                            <path d="M94.708,42.6914225 C95.193,42.6914225 95.653,42.8136761 96.004,43.035507 L120.05,58.3842394 L139.816,48.274662 C140.132,48.1139577 140.469,48.0331127 140.815,48.0331127 C141.191,48.0331127 141.316,48.1336761 141.651,48.3229718 L158,57.1202958 L158,20.7045211 L69,20.7045211 L69,57.0443803 L93.208,43.0049437 C93.553,42.802831 94.247,42.6914225 94.708,42.6914225 Z M69,62.1277606 L69,70.9862113 L158,70.9862113 L158,62.1435352 L140.46,52.6915634 L120.764,62.8287465 C120.455,62.9845211 120.158,63.067338 119.792,63.067338 C119.351,63.067338 118.946,62.9440986 118.597,62.7232535 L94.28,47.434662 L69,62.1277606 Z M65,74.9298732 L162,74.9298732 L162,16.7608592 L65,16.7608592 L65,74.9298732 Z" id="Fill-27" fill="#E2E2E2" mask="url(#mask-4)"></path>
                        </g>
                    </g>
                </g>
            </g>
        </g>
    </g>
</svg>