<?xml version="1.0" encoding="UTF-8"?>
<svg width="104px" height="150px" viewBox="0 0 104 150" version="1.1" xmlns="http://www.w3.org/2000/svg" xmlns:xlink="http://www.w3.org/1999/xlink">
    <!-- Generator: Sketch 51.3 (57544) - http://www.bohemiancoding.com/sketch -->
    <title>Group 10</title>
    <desc>Created with Sketch.</desc>
    <defs>
        <polygon id="path-1" points="0 0.832221128 39.7388833 0.832221128 39.7388833 128 0 128"></polygon>
        <polygon id="path-3" points="0.0964008219 0.691357428 39.8365499 0.691357428 39.8365499 134 0.0964008219 134"></polygon>
        <polygon id="path-5" points="0.910475566 0.265 40.649 0.265 40.649 173 0.910475566 173"></polygon>
    </defs>
    <g id="Page-1" stroke="none" stroke-width="1" fill="none" fill-rule="evenodd">
        <g id="design-copy-4" transform="translate(-749.000000, -1161.000000)">
            <g id="Group-2-Copy" transform="translate(513.000000, 961.000000)">
                <g id="Иконка">
                    <g id="Group-24">
                        <g id="Group-10" transform="translate(236.000000, 200.000000)">
                            <g id="Group-3" transform="translate(0.000000, 57.000000)">
                                <mask id="mask-2" fill="white">
                                    <use xlink:href="#path-1"></use>
                                </mask>
                                <g id="Clip-2"></g>
                                <path d="M28.1724,22.125 C26.9504,22.125 25.9584,23.115 25.9584,24.34 L25.9584,117.573 L13.7794,117.573 L13.7794,24.34 C13.7794,23.115 12.7884,22.125 11.5664,22.125 L6.8424,22.125 L19.4154,6.518 L32.7274,22.125 L28.1724,22.125 Z M21.0514,1.613 C20.6264,1.11 20.0724,0.815 19.3354,0.833 C18.6774,0.842 18.0554,1.146 17.6414,1.659 L0.4904,22.948 C-0.0456,23.612 -0.1516,24.522 0.2174,25.293 C0.5854,26.063 1.3624,26.552 2.2154,26.552 L9.3544,26.552 L9.3544,119.785 C9.3544,121.01 10.3454,122 11.5684,122 L28.1744,122 C29.3964,122 30.3884,121.01 30.3884,119.785 L30.3884,26.554 L37.5254,26.554 C38.3884,26.554 39.1744,26.051 39.5354,25.267 C39.8964,24.483 39.7704,23.56 39.2104,22.905 L21.0514,1.613 Z" id="Fill-1" fill="#E2E2E2" mask="url(#mask-2)"></path>
                            </g>
                            <g id="Group-6" transform="translate(43.000000, 35.000000)">
                                <mask id="mask-4" fill="white">
                                    <use xlink:href="#path-3"></use>
                                </mask>
                                <g id="Clip-5"></g>
                                <path d="M28.2686,21.9834 C27.0446,21.9834 26.0546,22.9724 26.0546,24.1974 L26.0546,129.5734 L13.8756,129.5734 L13.8756,24.1974 C13.8756,22.9724 12.8846,21.9834 11.6626,21.9834 L6.9396,21.9834 L19.5116,6.3764 L32.8236,21.9834 L28.2686,21.9834 Z M21.1476,1.4714 C20.7226,0.9654 20.1716,0.6874 19.4316,0.6914 C18.7746,0.7014 18.1516,1.0044 17.7376,1.5174 L0.5866,22.8064 C0.0516,23.4714 -0.0554,24.3814 0.3146,25.1524 C0.6826,25.9224 1.4586,26.4104 2.3116,26.4104 L9.4506,26.4104 L9.4506,131.7854 C9.4506,133.0094 10.4426,134.0004 11.6646,134.0004 L28.2706,134.0004 C29.4956,134.0004 30.4856,133.0094 30.4856,131.7854 L30.4856,26.4124 L37.6236,26.4124 C38.4876,26.4124 39.2716,25.9094 39.6336,25.1254 C39.9946,24.3404 39.8666,23.4184 39.3086,22.7624 L21.1476,1.4714 Z" id="Fill-4" fill="#E2E2E2" mask="url(#mask-4)"></path>
                            </g>
                            <g id="Group-9" transform="translate(83.000000, 0.000000)">
                                <mask id="mask-6" fill="white">
                                    <use xlink:href="#path-5"></use>
                                </mask>
                                <g id="Clip-8"></g>
                                <path d="M29.0854,21.5557 C27.8614,21.5557 26.8714,22.5487 26.8714,23.7707 L26.8714,174.5737 L14.6954,174.5737 L14.6954,23.7707 C14.6954,22.5487 13.7054,21.5557 12.4814,21.5557 L7.7544,21.5557 L20.3264,5.9517 L33.6404,21.5557 L29.0854,21.5557 Z M21.9624,1.0417 C21.5424,0.5477 20.9264,0.2647 20.2774,0.2647 C19.5864,0.2737 18.9664,0.5767 18.5524,1.0907 L1.4014,22.3787 C0.8654,23.0437 0.7594,23.9557 1.1274,24.7247 C1.4944,25.4937 2.2734,25.9827 3.1244,25.9827 L10.2654,25.9827 L10.2654,176.7847 C10.2654,178.0097 11.2544,178.9997 12.4794,178.9997 L29.0834,178.9997 C30.3084,178.9997 31.2974,178.0097 31.2974,176.7847 L31.2974,25.9847 L38.4364,25.9847 C39.2994,25.9847 40.0834,25.4827 40.4464,24.6987 C40.8074,23.9147 40.6794,22.9907 40.1214,22.3327 L21.9624,1.0417 Z" id="Fill-7" fill="#E2E2E2" mask="url(#mask-6)"></path>
                            </g>
                        </g>
                    </g>
                </g>
            </g>
        </g>
    </g>
</svg>