<?xml version="1.0" encoding="utf-8"?>
<!-- Generator: Adobe Illustrator 16.0.0, SVG Export Plug-In . SVG Version: 6.00 Build 0)  -->
<!DOCTYPE svg PUBLIC "-//W3C//DTD SVG 1.1//EN" "http://www.w3.org/Graphics/SVG/1.1/DTD/svg11.dtd">
<svg version="1.1" id="Шар_1" xmlns="http://www.w3.org/2000/svg" xmlns:xlink="http://www.w3.org/1999/xlink" x="0px" y="0px"
	 width="192px" height="192px" viewBox="822.5 42.5 192 192" enable-background="new 822.5 42.5 192 192" xml:space="preserve">
<g>
	<path fill="#DEDEDE" d="M1006.5,77.5v-18h-18v7h-62v-7h-18v7h-60v-7h-18v18h18v-7h48.093c-31.305,8.771-54.864,35.853-58.492,69
		H830.5v18h18v-18h-6.374c4.034-35.021,31.495-62.817,66.374-67.345V77.5h18v-5.564c35.886,3.695,64.256,31.732,68.374,67.564H987.5
		v18h18v-18h-6.601c-3.637-33.295-27.162-60.272-58.513-69H988.5v7H1006.5z M844.5,73.5h-10v-10h10V73.5z M844.5,153.5h-10v-10h10
		V153.5z M1001.5,153.5h-10v-10h10V153.5z M922.5,73.5h-10v-10h10V73.5z M992.5,63.5h10v10h-10V63.5z"/>
	<path fill="#DEDEDE" d="M922.159,89.496h-7.325l-36.063,79.551c-0.821,1.821-0.711,4.004,0.287,5.692l15.214,25.877
		c-4.004,0.944-6.993,4.543-6.993,8.827v6.979c0,5.006,4.072,9.078,9.078,9.078h44.281c5.006,0,9.079-4.072,9.079-9.078v-6.979
		c0-4.281-2.985-7.879-6.985-8.825l15.206-25.871c1.002-1.71,1.114-3.893,0.293-5.693L922.159,89.496z M918.503,164.062
		c4.131,0,7.492,3.359,7.492,7.489c0,4.14-3.361,7.507-7.492,7.507c-4.138,0-7.504-3.367-7.504-7.507
		C910.999,167.422,914.365,164.062,918.503,164.062z M945.717,209.443v6.979c0,2.8-2.278,5.078-5.079,5.078h-44.281
		c-2.8,0-5.078-2.278-5.078-5.078v-6.979c0-2.795,2.278-5.068,5.078-5.068h1.144v0.125h42v-0.125h1.138
		C943.438,204.375,945.717,206.648,945.717,209.443z M954.487,172.722L938.161,200.5h-39.318l-16.339-27.792
		c-0.338-0.572-0.373-1.383-0.089-2.013L916.5,95.508v64.74c-5.391,0.951-9.501,5.652-9.501,11.304
		c0,6.345,5.16,11.507,11.504,11.507c6.337,0,11.492-5.162,11.492-11.507c0-5.653-4.108-10.354-9.495-11.304V95.523l34.09,75.187
		C954.871,171.328,954.83,172.138,954.487,172.722z"/>
</g>
</svg>
