<?xml version="1.0" encoding="utf-8"?>
<!-- Generator: Adobe Illustrator 16.0.0, SVG Export Plug-In . SVG Version: 6.00 Build 0)  -->
<!DOCTYPE svg PUBLIC "-//W3C//DTD SVG 1.1//EN" "http://www.w3.org/Graphics/SVG/1.1/DTD/svg11.dtd">
<svg version="1.1" id="Шар_1" xmlns="http://www.w3.org/2000/svg" xmlns:xlink="http://www.w3.org/1999/xlink" x="0px" y="0px"
	 width="217.75px" height="192px" viewBox="-111.5 -197.5 217.75 192" enable-background="new -111.5 -197.5 217.75 192"
	 xml:space="preserve">
<g>
	<g>
		<path fill="#E2E2E2" d="M95-24H-95v-124H95V-24z M95-152H-95v-16H95V-152z M57.96-20H81.48H99v-152h-199v152H21.33h29.43H57.96z"
			/>
		<path fill="#E2E2E2" d="M-86.98-156.342c2.019,0,3.666-1.683,3.666-3.752c0-2.063-1.647-3.742-3.666-3.742
			c-2.024,0-3.667,1.679-3.667,3.742C-90.647-158.025-89.005-156.342-86.98-156.342z"/>
		<path fill="#E2E2E2" d="M-76.091-156.342c2.029,0,3.674-1.683,3.674-3.752c0-2.063-1.645-3.742-3.674-3.742
			c-2.02,0-3.667,1.679-3.667,3.742C-79.758-158.025-78.111-156.342-76.091-156.342z"/>
		<path fill="#E2E2E2" d="M-65.196-156.342c2.022,0,3.673-1.683,3.673-3.752c0-2.063-1.65-3.742-3.673-3.742
			c-2.025,0-3.668,1.679-3.668,3.742C-68.864-158.025-67.222-156.342-65.196-156.342z"/>
		<g>
			<defs>
				<rect id="SVGID_1_" x="-95" y="-148" width="189" height="124"/>
			</defs>
			<clipPath id="SVGID_2_">
				<use xlink:href="#SVGID_1_"  overflow="visible"/>
			</clipPath>
		</g>
	</g>
	<g>
		<g>
			<path fill="none" stroke="#E2E2E2" stroke-width="4" stroke-linecap="round" stroke-linejoin="round" stroke-miterlimit="10" d="
				M19.033-23L-13.99-56.26c-13.87,5.02-30.76,2.12-41.83-9.24c-10.45-10.73-12.9-26.08-8.16-38.87l23.04,23.65l18.74-3.58
				l6.35-19.51l-23.1-23.61c13.6-4.1,28.92-0.6,39.38,10.13c11.06,11.36,13.74,27.35,7.01,41.3l41.42,42.52
				c10.1-2.47,20.93,0.32,28.439,8.03c0.46,0.47,0.891,0.95,1.3,1.44"/>
			
				<polyline fill="none" stroke="#E2E2E2" stroke-width="4" stroke-linecap="round" stroke-linejoin="round" stroke-miterlimit="10" points="
				7.11,-61.884 37.55,-30.635 30.957,-24.564 0.517,-55.812 			"/>
		</g>
		<g>
			<polygon fill="none" stroke="#E2E2E2" stroke-width="4" stroke-miterlimit="10" points="-64.268,-109.253 -59.719,-124.782 
				-43.704,-129.056 -32.239,-117.801 -36.789,-102.272 -52.803,-97.999 			"/>
			<path fill="none" stroke="#E2E2E2" stroke-width="4" stroke-miterlimit="10" d="M-43.625-108.983
				c2.582-2.486,2.601-6.536,0.045-9.045c-2.557-2.51-6.721-2.529-9.303-0.043c-2.58,2.485-2.6,6.535-0.044,9.044
				C-50.371-106.516-46.206-106.499-43.625-108.983z"/>
		</g>
	</g>
</g>
</svg>
