<?xml version="1.0" encoding="UTF-8"?>
<svg width="196px" height="196px" viewBox="0 0 196 196" version="1.1" xmlns="http://www.w3.org/2000/svg" xmlns:xlink="http://www.w3.org/1999/xlink">
    <!-- Generator: Sketch 55.2 (78181) - https://sketchapp.com -->
    <title>Megaphone</title>
    <desc>Created with Sketch.</desc>
    <defs>
        <polygon id="path-1" points="0.0948105433 0.0556501112 129.029237 0.0556501112 129.029237 137.971234 0.0948105433 137.971234"></polygon>
    </defs>
    <g id="Megaphone" stroke="none" stroke-width="1" fill="none" fill-rule="evenodd">
        <g id="Group-24" transform="translate(94.000000, 93.500000) scale(-1, 1) rotate(-27.000000) translate(-94.000000, -93.500000) translate(-4.000000, 13.000000)">
            <g id="Group-3" transform="translate(16.000000, 0.000000)">
                <mask id="mask-2" fill="white">
                    <use xlink:href="#path-1"></use>
                </mask>
                <g id="Clip-2"></g>
                <path d="M123.579608,0.0555273536 C122.465861,0.0555273536 121.361936,0.459399852 120.467991,1.19103514 L76.3797848,37.2793139 L5.14167237,37.2793139 C2.42913763,37.2793139 0.0948105433,39.4263443 0.0948105433,42.1380596 L0.0948105433,97.2095733 C0.0948105433,99.9212887 2.42913763,102.340841 5.14167237,102.340841 L76.4301306,102.340841 L120.537984,136.971987 C121.422106,137.670478 122.496559,137.971234 123.579608,137.971234 C124.309009,137.971234 125.311014,137.78096 125.992524,137.450742 C127.685863,136.629493 129.029237,134.886335 129.029237,133.005689 L129.029237,4.96583128 C129.029237,3.06922639 127.666216,1.34079941 125.952002,0.528144107 C125.281543,0.211429503 124.293046,0.0555273536 123.579608,0.0555273536 M124.117449,5.36233832 L124.117449,133.005689 L78.132065,97.430537 L5.00659821,97.430537 L5.00659821,42.1896178 L78.132065,42.1896178 L124.117449,4.96583128" id="Fill-1" fill="#E2E2E2" mask="url(#mask-2)"></path>
            </g>
            <path d="M18.5294118,90 L2.47058824,90 C1.10682353,90 0,88.8727742 0,87.483871 L0,53.516129 C0,52.1272258 1.10682353,51 2.47058824,51 L18.5294118,51 C19.8931765,51 21,52.1272258 21,53.516129 C21,54.9050323 19.8931765,56.0322581 18.5294118,56.0322581 L4.94117647,56.0322581 L4.94117647,84.9677419 L18.5294118,84.9677419 C19.8931765,84.9677419 21,86.0949677 21,87.483871 C21,88.8727742 19.8931765,90 18.5294118,90" id="Fill-4" fill="#E2E2E2"></path>
            <path d="M94.1962157,39.8348217 L94.5,98" id="Stroke-6" stroke="#E2E2E2" stroke-width="5" stroke-linecap="square"></path>
            <path d="M32,56.5 L54,56.5" id="Stroke-8" stroke="#E2E2E2" stroke-width="4"></path>
            <path d="M32,71.5 L54,71.5" id="Stroke-10" stroke="#E2E2E2" stroke-width="4"></path>
            <path d="M32,83.5 L54,83.5" id="Stroke-12" stroke="#E2E2E2" stroke-width="4"></path>
            <path d="M107,43 L129,25" id="Stroke-14" stroke="#E2E2E2" stroke-width="4" stroke-linejoin="round"></path>
            <path d="M56.163018,161 L56.1581698,161 L34.4204227,160.955939 C33.0823422,160.953491 32,159.856862 32,158.508106 L32,100 L36.8481176,100 L36.8481176,156.065169 L53.731687,156.099438 L53.7195667,151.615008 C53.7195667,147.839226 55.7060829,145.858929 57.15567,144.411035 C58.5046587,143.067175 59.1518824,142.347512 59.1518824,140.697673 C59.1518824,139.046609 58.5010226,138.320827 57.1471858,136.963503 C55.6951746,135.507043 53.7074464,133.512059 53.7074464,129.739948 C53.7074464,125.9813 55.6866904,124.002227 57.1338535,122.558006 C58.4792061,121.212921 59.1264298,120.493258 59.1264298,118.842195 C59.1264298,117.366152 58.6076812,116.664848 57.4332248,115.220626 C55.836982,113.25624 53.6529051,110.567295 53.6529051,104.692496 L53.6529051,102.244663 L58.5010226,102.244663 L58.5010226,104.692496 C58.5010226,108.815871 59.8027422,110.417978 61.1808196,112.114326 C62.4910234,113.725 63.9745474,115.552307 63.9745474,118.842195 C63.9745474,122.610634 61.9916673,124.592155 60.5432922,126.038824 C59.2003636,127.379013 58.555564,128.097452 58.555564,129.739948 C58.555564,131.400803 59.2076358,132.129033 60.5638967,133.490028 C62.0134838,134.944041 64,136.936577 64,140.697673 C64,144.466112 62.0134838,146.446409 60.5638967,147.894302 C59.21612,149.239386 58.5676843,149.959049 58.5676843,151.607665 L58.5870767,158.544823 C58.5882888,159.195947 58.3337626,159.821368 57.8780395,160.282785 C57.4235285,160.741754 56.8053935,161 56.163018,161" id="Fill-16" fill="#E2E2E2"></path>
            <path d="M157,95 C167.509369,91.0916345 175,80.9167427 175,68.9823564 C175,57.0832573 167.556518,46.9363519 157.099134,43" id="Stroke-18" stroke="#E2E2E2" stroke-width="4" stroke-linecap="square" stroke-linejoin="round"></path>
            <path d="M171,107 C185.646429,101.03384 196,86.4214633 196,69.3432858 C195.998815,52.5577231 185.997156,38.153482 171.742926,32" id="Stroke-20" stroke="#E2E2E2" stroke-width="4" stroke-linecap="square" stroke-linejoin="round"></path>
            <path d="M143.977447,83.7322931 C151.393294,82.3810915 157,76.0760926 157,68.5061192 C157,60.9880337 151.485681,54.7235037 144.161131,53.3022808" id="Stroke-22" stroke="#E2E2E2" stroke-width="4" stroke-linecap="square" stroke-linejoin="round"></path>
        </g>
    </g>
</svg>