<?xml version="1.0" encoding="UTF-8"?>
<!DOCTYPE svg PUBLIC "-//W3C//DTD SVG 1.1//EN" "http://www.w3.org/Graphics/SVG/1.1/DTD/svg11.dtd">
<!-- Creator: CorelDRAW 2018 -->
<svg xmlns="http://www.w3.org/2000/svg" xml:space="preserve" width="408px" height="230px" version="1.1" style="shape-rendering:geometricPrecision; text-rendering:geometricPrecision; image-rendering:optimizeQuality; fill-rule:evenodd; clip-rule:evenodd"
viewBox="0 0 766 431.086"
 xmlns:xlink="http://www.w3.org/1999/xlink">
 <defs>
  <style type="text/css">
   <![CDATA[
    .str0 {stroke:black;stroke-width:5.322;stroke-miterlimit:22.9256}
    .fil0 {fill:none}
   ]]>
  </style>
 </defs>
 <g id="Слой_x0020_1">
  <metadata id="CorelCorpID_0Corel-Layer"/>
  <path class="fil0 str0" d="M383 410.339c125.108,0 250.216,0 375.324,0 -25.978,20.471 -134.222,17.992 -167.765,17.992 -69.186,0 -138.373,0 -207.559,0"/>
  <path class="fil0 str0" d="M383 410.339c-125.108,0 -250.216,0 -375.324,0 25.978,20.471 134.221,17.992 167.765,17.992 69.186,0 138.373,0 207.559,0"/>
  <path class="fil0 str0" d="M80.027 410.339c0,-125.259 0,-250.517 0,-375.776 -0.024,-21.136 15.85,-33.194 43.864,-31.797 86.369,0 172.739,0 259.109,0"/>
  <path class="fil0 str0" d="M685.972 410.339c0,-125.259 0,-250.517 0,-375.776 0.025,-21.136 -15.849,-33.194 -43.863,-31.797 -86.37,0 -172.739,0 -259.109,0"/>
  <rect class="fil0 str0" x="101.507" y="28.232" width="562.986" height="356.784"/>
  <path class="fil0 str0" d="M336.024 292.544c8.706,-8.968 17.412,-17.936 26.118,-26.905 17.204,5.177 33.159,6.307 47.545,2.361 50.357,-13.815 65.47,-83.647 28.483,-118.677 -23.38,-22.143 -62.652,-26.088 -94.796,-0.359 -20.605,16.331 -26.905,40.366 -20.212,71.396 -8.968,9.012 -17.937,18.024 -26.905,27.036 -2.931,-7.787 -5.862,-15.574 -8.793,-23.361 -10.806,-3.675 -21.612,-7.35 -32.418,-11.025 0.482,-12.074 0.963,-24.149 1.444,-36.224 10.981,-1.837 21.962,-3.674 32.943,-5.511 4.2,-8.706 8.399,-17.412 12.599,-26.118 -5.994,-9.974 -11.987,-19.949 -17.981,-29.924 9.056,-8.312 18.113,-16.624 27.168,-24.936 9.231,6.343 18.462,12.687 27.693,19.03 9.537,-3.806 19.074,-7.612 28.611,-11.418 2.45,-10.412 4.899,-20.824 7.35,-31.236 13.036,0.219 26.073,0.438 39.11,0.656 1.837,10.85 3.675,21.7 5.513,32.549 9.099,4.156 18.199,8.312 27.298,12.468 9.275,-5.775 18.55,-11.549 27.824,-17.324 8.837,8.881 17.674,17.762 26.511,26.642 -5.949,9.318 -11.899,18.637 -17.849,27.955 3.238,9.581 6.475,19.161 9.712,28.743 10.456,2.406 20.911,4.812 31.367,7.218 -0.131,12.993 -0.262,25.986 -0.393,38.98 -10.894,2.143 -21.787,4.287 -32.68,6.431 -4.287,8.399 -8.575,16.799 -12.862,25.199 6.081,9.012 12.162,18.024 18.243,27.036 -9.45,9.537 -18.899,19.074 -28.349,28.611 -9.406,-6.212 -18.811,-12.424 -28.218,-18.637 -9.143,3.369 -18.286,6.737 -27.429,10.106 -1.75,10.543 -3.5,21.086 -5.25,31.63 -14.218,-0.131 -28.437,-0.262 -42.655,-0.394 -1.356,-10.806 -2.712,-21.611 -4.068,-32.417 -8.225,-3.194 -16.449,-6.387 -24.674,-9.581z"/>
  <path class="fil0 str0" d="M252.945 310.394c-27.58,22.363 1.549,46.102 21.131,24.543 32.198,-32.331 64.397,-64.66 96.595,-96.989 2.133,0.161 4.233,0.283 6.295,0.357 28.231,1.024 49.126,-6.738 46.99,-42.093 -12.513,7.468 -20.864,15.195 -26.904,15.45 -6.074,0.256 -16.831,-16.221 -17.021,-22.67 -0.225,-7.597 7.936,-10.359 23.844,-21.522 -38.035,-19.691 -66.793,9.832 -55.516,46.722 -30.885,30.756 -64.527,65.447 -95.414,96.202z"/>
  <circle class="fil0 str0" cx="256.948" cy="328.965" r="5.447"/>
  <line class="fil0 str0" x1="359.373" y1="16.589" x2="406.627" y2= "16.589" />
 </g>
</svg>
