<?xml version="1.0" encoding="UTF-8"?>
<!DOCTYPE svg PUBLIC "-//W3C//DTD SVG 1.1//EN" "http://www.w3.org/Graphics/SVG/1.1/DTD/svg11.dtd">
<!-- Creator: CorelDRAW 2018 -->
<svg xmlns="http://www.w3.org/2000/svg" xml:space="preserve" width="292px" height="286px" version="1.1" style="shape-rendering:geometricPrecision; text-rendering:geometricPrecision; image-rendering:optimizeQuality; fill-rule:evenodd; clip-rule:evenodd"
viewBox="0 0 77.553 75.774"
 xmlns:xlink="http://www.w3.org/1999/xlink">
 <defs>
  <style type="text/css">
   <![CDATA[
    .str0 {stroke:black;stroke-width:0.752;stroke-miterlimit:22.9256}
    .fil0 {fill:none}
   ]]>
  </style>
 </defs>
 <g id="Слой_x0020_1">
  <metadata id="CorelCorpID_0Corel-Layer"/>
  <path class="fil0 str0" d="M55.206 0.564c7.566,-1.821 16.705,9.603 20.412,25.515 3.707,15.912 0.579,30.287 -6.988,32.108 -7.566,1.82 -16.705,-9.603 -20.412,-25.515 -3.707,-15.912 -0.579,-30.287 6.988,-32.108z"/>
  <path class="fil0 str0" d="M58.833 23.275c1.809,-0.283 3.817,2.304 4.484,5.78 0.668,3.476 -0.258,6.523 -2.066,6.807 -1.809,0.284 -3.817,-2.304 -4.484,-5.78 -0.668,-3.476 0.257,-6.523 2.066,-6.807z"/>
  <path class="fil0 str0" d="M59.883 26.155c0.953,-0.149 2.01,1.213 2.361,3.044 0.352,1.83 -0.135,3.435 -1.088,3.584 -0.953,0.15 -2.01,-1.213 -2.361,-3.043 -0.352,-1.831 0.135,-3.436 1.088,-3.585z"/>
  <path class="fil0 str0" d="M55.833 3.257c6.859,-1.65 15.144,8.705 18.504,23.13 3.361,14.425 0.525,27.456 -6.334,29.107 -6.859,1.65 -13.711,-8.865 -17.072,-23.289 -3.36,-14.425 -1.957,-27.297 4.902,-28.948z"/>
  <path class="fil0 str0" d="M46.892 15.07c-7.126,5.311 -14.373,10.473 -22.886,14.076 -9.082,0.122 -6.425,19.495 2.626,16.673 9.759,-0.754 19.099,1.008 28.327,3.442"/>
  <path class="fil0 str0" d="M22.953 29.254c-0.942,-1.863 -8.74,1.348 -15.045,2.837 -6.954,2.045 -3.463,18.315 3.285,17.707 0.795,-0.199 1.591,-0.398 2.387,-0.597 1.446,2.348 2.892,4.695 4.337,7.043 0.809,0.61 1.619,1.22 2.428,1.831 2.918,5.663 5.836,11.327 8.754,16.991 1.711,-1.778 3.422,-3.555 5.133,-5.332 -2.48,-3.86 -4.961,-7.72 -7.441,-11.58 0.265,-1.008 0.531,-2.016 0.796,-3.024 -0.995,-2.321 -1.99,-4.642 -2.985,-6.964 1.34,-0.252 2.68,-0.504 4.019,-0.756 -0.025,-0.569 -0.05,-1.138 -0.076,-1.708"/>
  <polyline class="fil0 str0" points="28.621,47.41 30.691,55.011 29.616,57.784 37.853,69.415 32.919,75.398 29.019,75.398 "/>
  <line class="fil0 str0" x1="34.232" y1="69.734" x2="37.853" y2= "69.415" />
  <line class="fil0 str0" x1="26.791" y1="58.154" x2="29.616" y2= "57.784" />
  <line class="fil0 str0" x1="27.587" y1="55.13" x2="30.691" y2= "55.011" />
  <line class="fil0 str0" x1="24.602" y1="48.166" x2="23.73" y2= "45.965" />
  <path class="fil0 str0" d="M6.117 33.11c-7.832,3.882 -2.461,18.989 4.875,16.701"/>
  <path class="fil0 str0" d="M2.889 36.616c-4.838,3.181 -2.041,11.913 2.871,11.861"/>
  <line class="fil0 str0" x1="13.58" y1="49.201" x2="23.926" y2= "46.774" />
  <line class="fil0 str0" x1="17.917" y1="56.244" x2="27.587" y2= "55.13" />
  <line class="fil0 str0" x1="61.251" y1="35.862" x2="52.728" y2= "38.586" />
  <line class="fil0 str0" x1="58.511" y1="23.358" x2="49.557" y2= "24.397" />
 </g>
</svg>
