<?xml version="1.0" standalone="no"?>
<!DOCTYPE svg PUBLIC "-//W3C//DTD SVG 20010904//EN"
 "http://www.w3.org/TR/2001/REC-SVG-20010904/DTD/svg10.dtd">
<svg version="1.0" xmlns="http://www.w3.org/2000/svg"
 width="260.000000pt" height="260.000000pt" viewBox="0 0 260.000000 260.000000"
 preserveAspectRatio="xMidYMid meet">
<metadata>
Created by potrace 1.11, written by Peter Selinger 2001-2013
</metadata>
<g transform="translate(0.000000,260.000000) scale(0.100000,-0.100000)"
fill="#000000" stroke="none">
<path d="M305 1917 c-3 -7 -4 -60 -3 -118 l3 -104 345 -5 c385 -6 387 -6 416
-75 19 -46 18 -69 -5 -113 -35 -69 -50 -72 -310 -72 l-231 0 0 45 0 45 -110 0
-110 0 0 -153 0 -154 182 -6 c99 -4 254 -7 342 -7 140 0 165 -3 192 -19 32
-20 64 -74 64 -110 0 -40 -28 -90 -62 -111 -31 -18 -50 -20 -265 -20 l-232 0
-3 43 -3 42 -105 0 -105 0 -3 -158 -3 -158 373 3 c370 3 373 3 418 27 81 42
127 88 162 159 31 63 33 73 33 172 0 109 -6 130 -75 237 -13 20 -12 25 7 45
11 13 31 43 44 68 21 39 24 59 24 150 0 90 -4 112 -24 152 -37 75 -95 134
-169 170 l-67 33 -357 3 c-297 3 -359 1 -363 -11z"/>
<path d="M1420 1310 l0 -610 450 0 451 0 -3 157 -3 158 -104 0 -104 0 -1 -45
-1 -45 -232 -3 -233 -2 0 500 0 500 -110 0 -110 0 0 -610z"/>
</g>
</svg>
